<svg xmlns="http://www.w3.org/2000/svg" xmlns:xlink="http://www.w3.org/1999/xlink" width="90" height="90" viewBox="0 0 90 90">
  <defs>
    <filter id="bg" x="0" y="0" width="90" height="90" filterUnits="userSpaceOnUse">
      <feOffset dy="6" input="SourceAlpha"/>
      <feGaussianBlur stdDeviation="5" result="blur"/>
      <feFlood flood-opacity="0.161"/>
      <feComposite operator="in" in2="blur"/>
      <feComposite in="SourceGraphic"/>
    </filter>
  </defs>
  <g id="icon" transform="translate(-1295 -2753)">
    <g transform="matrix(1, 0, 0, 1, 1295, 2753)" filter="url(#bg)">
      <circle id="bg-2" data-name="bg" cx="30" cy="30" r="30" transform="translate(15 9)" fill="#fff"/>
    </g>
    <path id="delivery-truck" d="M32.731,19.807l-3.215-7.5a1.071,1.071,0,0,0-.985-.654H25.316V9.509a1.071,1.071,0,0,0-1.071-1.071H3.884A1.071,1.071,0,0,0,2.813,9.509V27.726A1.071,1.071,0,0,0,3.884,28.8H6.177a4.286,4.286,0,0,0,8.272,0h6.729a4.286,4.286,0,0,0,8.272,0h2.294a1.071,1.071,0,0,0,1.071-1.071v-7.5a1.071,1.071,0,0,0-.086-.418ZM25.316,13.8h2.508l2.293,5.358h-4.8Zm-15,16.074a2.144,2.144,0,1,1,2.144-2.144,2.144,2.144,0,0,1-2.144,2.144Zm10.866-3.215H14.45a4.286,4.286,0,0,0-8.272,0H4.956V10.581H23.172V24.04a4.286,4.286,0,0,0-1.993,2.614Zm4.137,3.215a2.144,2.144,0,1,1,2.144-2.144A2.144,2.144,0,0,1,25.316,29.87Zm5.358-3.215H29.452a4.286,4.286,0,0,0-4.136-3.215V21.3h5.358Z" transform="translate(1322.187 2771.562)"/>
  </g>
</svg>
